<?xml version="1.0" standalone="no"?><!DOCTYPE svg PUBLIC "-//W3C//DTD SVG 1.1//EN" "http://www.w3.org/Graphics/SVG/1.1/DTD/svg11.dtd"><svg t="1733059856943" class="icon" viewBox="0 0 1024 1024" version="1.1" xmlns="http://www.w3.org/2000/svg" p-id="10863" xmlns:xlink="http://www.w3.org/1999/xlink" width="200" height="200"><path d="M512 512m-512 0a512 512 0 1 0 1024 0 512 512 0 1 0-1024 0Z" fill="#FFFFFF" p-id="10864"></path><path d="M512 0C229.688889 0 0 229.688889 0 512s229.688889 512 512 512 512-229.688889 512-512S794.311111 0 512 0zM68.266667 512c0-107.008 38.087111-205.283556 101.404444-281.998222 6.627556 7.395556 12.060444 17.208889 14.592 30.236444 5.319111 27.932444-14.222222 119.608889 10.666667 139.747556 37.944889 30.72 96.711111 4.892444 126.919111 23.466666 30.606222 18.773333 106.865778 106.353778 136.647111 88.547556 50.062222-29.866667-35.754667-147.968-39.452444-179.911111-5.461333-47.303111 24.405333-102.769778 78.904888-82.631111 34.190222 12.657778 41.301333 58.225778 73.244445 60.103111 31.943111 1.877333 17.038222-98.417778 16.896-114.574222-0.341333-45.255111 44.259556-77.454222 91.733333-93.667556 161.678222 66.304 275.911111 225.365333 275.911111 410.680889a440.888889 440.888889 0 0 1-50.915555 206.023111c-3.697778-39.736889-13.368889-83.968-37.546667-97.507555-46.961778-26.282667-99.214222-1.137778-137.102222-43.207112-15.701333-17.351111 4.010667-95.004444-43.178667-113.664-91.733333-36.266667-166.058667 38.542222-188.586666 98.645334-9.415111 25.144889-12.714667 55.893333-8.248889 85.873778 0.938667 96.341333-48.924444 96.426667-30.008889 135.054222 20.736 42.325333 94.805333 27.306667 80.384 115.911111-2.019556 13.084444-8.362667 25.088-18.005334 34.133333-8.590222 5.688889-17.351111 11.150222-26.282666 16.355556a124.131556 124.131556 0 0 1-15.246222 4.892444C250.766222 938.581333 68.266667 746.268444 68.266667 512z" fill="#3576EA" p-id="10865"></path></svg>